HIERARCHY
ROOT Hips
{
	OFFSET 0.000000 0.000000 0.000000 
	CHANNELS 6 Xposition Yposition Zposition Zrotation Yrotation Xrotation
	JOINT LeftUpLeg
	{
		OFFSET 1.363060 -1.794630 0.839290 
		CHANNELS 3 Zrotation Yrotation Xrotation
		JOINT LeftLeg
		{
			OFFSET 2.448110 -6.726130 0.000000 
			CHANNELS 3 Zrotation Yrotation Xrotation
			JOINT LeftFoot
			{
				OFFSET 2.562200 -7.039590 0.000000 
				CHANNELS 3 Zrotation Yrotation Xrotation
				JOINT LeftToeBase
				{
					OFFSET 0.157640 -0.433110 2.322550 
					CHANNELS 3 Zrotation Yrotation Xrotation
					End Site
					{
						OFFSET 0.000000 0.000000 0.000000 
					}
				}
			}
		}
	}
	JOINT RightUpLeg
	{
		OFFSET -1.305520 -1.794630 0.839290 
		CHANNELS 3 Zrotation Yrotation Xrotation
		JOINT RightLeg
		{
			OFFSET -2.542530 -6.985550 0.000000 
			CHANNELS 3 Zrotation Yrotation Xrotation
			JOINT RightFoot
			{
				OFFSET -2.568260 -7.056230 0.000000 
				CHANNELS 3 Zrotation Yrotation Xrotation
				JOINT RightToeBase
				{
					OFFSET -0.164730 -0.452590 2.363150 
					CHANNELS 3 Zrotation Yrotation Xrotation
					End Site
					{
						OFFSET 0.000000 0.000000 0.000000 
					}
				}
			}
		}
	}
	JOINT Spine
	{
		OFFSET 0.028270 2.035590 -0.193380 
		CHANNELS 3 Zrotation Yrotation Xrotation
		JOINT Spine1
		{
			OFFSET 0.056720 2.048850 -0.042750 
			CHANNELS 3 Zrotation Yrotation Xrotation
			JOINT Neck1
			{
				OFFSET -0.054170 1.746240 0.172020 
				CHANNELS 3 Zrotation Yrotation Xrotation
				JOINT Head
				{
					OFFSET 0.104070 1.761360 -0.123970 
					CHANNELS 3 Zrotation Yrotation Xrotation
					End Site
					{
						OFFSET 0.000000 0.000000 0.000000 
					}
				}
			}
			JOINT LeftArm
			{
				OFFSET 3.362410 1.200890 -0.311210 
				CHANNELS 3 Zrotation Yrotation Xrotation
				JOINT LeftForeArm
				{
					OFFSET 4.983000 -0.000000 -0.000000 
					CHANNELS 3 Zrotation Yrotation Xrotation
					JOINT LeftHand
					{
						OFFSET 3.483560 -0.000000 -0.000000 
						CHANNELS 3 Zrotation Yrotation Xrotation
						JOINT LeftHandIndex1
						{
							OFFSET 0.715260 -0.000000 -0.000000 
							CHANNELS 3 Zrotation Yrotation Xrotation
							End Site
							{
								OFFSET 0.000000 0.000000 0.000000 
							}
						}
					}
				}
			}
			JOINT RightArm
			{
				OFFSET -3.136600 1.374050 -0.404650 
				CHANNELS 3 Zrotation Yrotation Xrotation
				JOINT RightForeArm
				{
					OFFSET -5.241900 -0.000000 -0.000000 
					CHANNELS 3 Zrotation Yrotation Xrotation
					JOINT RightHand
					{
						OFFSET -3.444170 -0.000000 -0.000000 
						CHANNELS 3 Zrotation Yrotation Xrotation
						JOINT RightHandIndex1
						{
							OFFSET -0.622530 -0.000000 -0.000000 
							CHANNELS 3 Zrotation Yrotation Xrotation
							End Site
							{
								OFFSET 0.000000 0.000000 0.000000 
							}
						}
					}
				}
			}
		}
	}
}
MOTION
Frames: 13
Frame Time: 0.041667
-0.792367 17.340267 40.244339 -179.949939 -33.976257 -169.386848 -8.935922 10.278656 -30.075352 10.551931 19.238704 59.965625 -1.274987 8.460097 20.782727 1.930700 -8.720300 -24.924100 18.893428 5.056200 -19.003782 -0.479816 -13.559829 33.256060 -1.784791 0.002573 2.257334 -0.796900 5.697800 -15.910200 0.436178 0.902242 -3.579099 1.788737 0.306251 -11.345199 9.912536 -24.615119 6.069901 23.792000 -13.194400 3.838700 -72.212775 11.404080 24.931277 39.841603 -41.942103 -22.069688 0.383392 -1.394803 -45.108870 -7.125000 0.000000 0.000000 72.081222 -14.082573 13.723055 -13.975165 26.231851 -5.911554 -0.794588 2.197151 20.835237 7.125000 0.000000 0.000000 
-0.834948 17.365388 40.189029 179.977978 -32.834307 -169.383572 -9.066543 10.081927 -30.519991 10.447562 19.281032 60.026535 -0.905055 7.212460 20.879032 2.123900 -9.119500 -26.169900 18.727055 5.594164 -18.316521 -0.325125 -13.343953 32.678507 -1.976647 0.447654 2.516605 -0.792300 5.681900 -15.864200 0.454292 0.950866 -3.569416 1.868540 0.355288 -11.138543 9.904495 -24.660346 6.032070 23.675500 -13.153700 4.040800 -72.855023 11.645127 23.876728 39.741045 -41.864271 -21.980015 0.331631 -1.381496 -45.522855 -7.125000 0.000000 0.000000 71.565356 -14.182022 14.896541 -14.038515 26.342455 -5.907230 -0.712123 2.221981 20.301096 7.125000 0.000000 0.000000 
-0.877416 17.393099 40.133944 179.923389 -31.753575 -169.383757 -9.196889 9.838987 -30.946828 10.318451 19.299122 59.910318 -0.669631 6.391348 20.895077 2.291700 -9.448900 -27.209900 18.552817 6.267892 -17.609949 -0.175771 -13.135382 32.109831 -2.121877 0.780896 2.687762 -0.752300 5.540000 -15.455500 0.413342 1.077716 -3.607861 1.595361 0.374072 -11.239920 9.924755 -24.727024 5.986290 23.590500 -13.175800 4.175100 -73.183577 12.164823 23.074985 39.547799 -41.745053 -21.822845 0.290379 -1.374065 -45.879424 -7.125000 0.000000 0.000000 71.465860 -14.692950 15.837133 -14.121086 26.536150 -5.988843 -0.748505 2.372020 19.807192 7.125000 0.000000 0.000000 
-0.921237 17.420923 40.076268 179.803483 -30.618620 -169.289289 -9.426627 9.485996 -31.421391 10.217503 19.338776 59.715975 -0.695964 6.377644 20.647578 2.394600 -9.643800 -27.830700 18.305384 7.000188 -16.936736 -0.031287 -12.920332 31.539307 -2.220994 0.998544 2.955638 -0.750900 5.534800 -15.440300 0.392872 1.218708 -3.635265 1.504840 0.435031 -11.244008 9.902059 -24.814749 5.917137 23.421900 -13.160200 4.247200 -73.609743 12.697682 22.295200 39.300228 -41.612784 -21.620224 0.252049 -1.369157 -46.346571 -7.125000 0.000000 0.000000 71.218406 -15.125119 16.965559 -14.250931 26.687836 -5.943616 -0.534441 2.300443 18.985229 7.125000 0.000000 0.000000 
-0.965733 17.445706 40.019268 179.713193 -29.481250 -169.235047 -9.587306 9.171168 -31.857396 10.084601 19.356266 59.468826 -0.642484 6.127908 20.479618 2.507000 -9.850700 -28.494600 18.081024 7.682052 -16.277656 0.105865 -12.712036 30.996357 -2.361810 1.323138 3.190598 -0.736700 5.483400 -15.292500 0.369511 1.354920 -3.663841 1.371651 0.484365 -11.272794 9.900352 -24.905972 5.840848 23.293100 -13.154600 4.331700 -74.047885 13.194167 21.465233 39.042852 -41.465625 -21.406482 0.212570 -1.362849 -46.785811 -7.125000 0.000000 0.000000 70.969003 -15.545770 17.978580 -14.352644 26.841300 -5.944679 -0.416314 2.305933 18.342705 7.125000 0.000000 0.000000 
-1.011130 17.469475 39.961818 179.621830 -28.332373 -169.169330 -9.739458 8.815978 -32.283827 9.936162 19.364011 59.126270 -0.661378 6.111466 20.246456 2.597300 -10.012600 -29.017700 17.845240 8.362685 -15.648791 0.234342 -12.510168 30.479329 -2.509066 1.666286 3.415421 -0.723500 5.435200 -15.154000 0.342967 1.503651 -3.698078 1.224075 0.535458 -11.338306 9.901704 -25.006003 5.748022 23.175200 -13.150300 4.383000 -74.481524 13.723671 20.646292 38.734654 -41.291581 -21.150368 0.174598 -1.357770 -47.237802 -7.125000 0.000000 0.000000 70.725898 -15.985996 18.945231 -14.438583 26.975318 -5.935614 -0.290404 2.300903 17.668043 7.125000 0.000000 0.000000 
-1.057653 17.492230 39.903691 179.529904 -27.165212 -169.095752 -9.872153 8.424044 -32.691341 9.769526 19.361767 58.700462 -0.730844 6.251185 19.942622 2.658600 -10.120800 -29.368700 17.598431 9.030871 -15.044888 0.356499 -12.311568 29.980286 -2.668517 2.042434 3.634238 -0.712100 5.393100 -15.033200 0.321906 1.644344 -3.733357 1.105723 0.586650 -11.407554 9.900672 -25.099372 5.646408 23.058300 -13.136000 4.418400 -74.957936 14.253774 19.780901 38.387468 -41.093892 -20.861074 0.137193 -1.353578 -47.702231 -7.125000 0.000000 0.000000 70.424954 -16.380007 19.906636 -14.495368 27.073607 -5.911068 -0.160286 2.287730 16.944275 7.125000 0.000000 0.000000 
-1.105304 17.514083 39.845002 179.445851 -25.979868 -169.021253 -9.972077 8.000111 -33.067198 9.573905 19.342761 58.171085 -0.832228 6.490666 19.592693 2.700900 -10.194400 -29.608500 17.346132 9.673800 -14.465232 0.473314 -12.116007 29.497039 -2.848400 2.472901 3.841313 -0.699400 5.345800 -14.897700 0.301377 1.789233 -3.770477 0.988155 0.638394 -11.495298 9.903078 -25.190382 5.533239 22.954100 -13.118000 4.428500 -75.443584 14.791668 18.898989 37.998963 -40.870971 -20.537816 0.100813 -1.351048 -48.165411 -7.125000 0.000000 0.000000 70.103333 -16.743862 20.820750 -14.522216 27.140664 -5.879593 -0.040432 2.283068 16.165466 7.125000 0.000000 0.000000 
-1.153968 17.535149 39.786199 179.365797 -24.785252 -168.948148 -10.030146 7.535344 -33.401973 9.341984 19.304623 57.532718 -0.946134 6.768174 19.209984 2.732700 -10.249300 -29.787800 17.087441 10.289607 -13.907756 0.585515 -11.922276 29.026205 -3.044503 2.948099 4.038445 -0.685000 5.291500 -14.741800 0.286298 1.918863 -3.808289 0.892750 0.685581 -11.590462 9.904867 -25.265058 5.419565 22.852100 -13.090800 4.434100 -75.962643 15.315965 17.970996 37.585277 -40.628100 -20.193112 0.064166 -1.350474 -48.648952 -7.125000 0.000000 0.000000 69.727430 -17.034647 21.729858 -14.520189 27.172528 -5.838416 0.073233 2.285586 15.298996 7.125000 0.000000 0.000000 
-1.203645 17.555425 39.727284 179.288632 -23.576800 -168.875612 -10.046392 7.030871 -33.691464 9.068317 19.244566 56.779275 -1.055240 7.037488 18.829431 2.773500 -10.319100 -30.016300 16.816414 10.885038 -13.369291 0.693084 -11.730302 28.567810 -3.256793 3.468438 4.228663 -0.667300 5.223900 -14.548400 0.269362 2.067035 -3.844917 0.794383 0.740845 -11.696312 9.909037 -25.349221 5.291731 22.753900 -13.063900 4.401900 -76.458831 15.841142 17.087826 37.140216 -40.366589 -19.823680 0.028093 -1.352141 -49.135268 -7.125000 0.000000 0.000000 69.353540 -17.291205 22.539576 -14.496810 27.180899 -5.794852 0.177729 2.297437 14.358467 7.125000 0.000000 0.000000 
-1.254450 17.574238 39.668144 179.223112 -22.347565 -168.815687 -10.004333 6.492557 -33.923891 8.750983 19.158750 55.909198 -1.141991 7.254267 18.487537 2.822600 -10.402200 -30.289200 16.547137 11.460908 -12.841956 0.795498 -11.542380 28.125011 -3.479597 4.021795 4.402158 -0.651300 5.162100 -14.371600 0.255272 2.219674 -3.877045 0.711117 0.801434 -11.790132 9.916813 -25.434996 5.157968 22.662200 -13.034700 4.358900 -76.959587 16.335355 16.206028 36.666223 -40.083893 -19.431017 -0.008097 -1.355135 -49.624662 -7.125000 0.000000 0.000000 68.951556 -17.478528 23.302441 -14.467177 27.179192 -5.754914 0.275231 2.319716 13.330582 7.125000 0.000000 0.000000 
-1.306381 17.591360 39.608778 179.162619 -21.097393 -168.770634 -9.903763 5.913980 -34.091763 8.388068 19.045155 54.924576 -1.190616 7.379498 18.214182 2.883300 -10.503700 -30.623600 16.272074 12.017696 -12.325577 0.891301 -11.360472 27.704152 -3.714960 4.614566 4.559957 -0.634700 5.097400 -14.186600 0.237371 2.391003 -3.906860 0.613489 0.868693 -11.896478 9.934215 -25.537690 5.011366 22.589500 -13.014400 4.289800 -77.422187 16.824989 15.372718 36.160695 -39.779967 -19.014813 -0.044510 -1.359699 -50.115515 -7.125000 0.000000 0.000000 68.567258 -17.635950 23.968976 -14.434499 27.173157 -5.720874 0.364217 2.349332 12.262866 7.125000 0.000000 0.000000 
-1.359550 17.606568 39.548850 179.106226 -19.817001 -168.746131 -9.736413 5.293985 -34.180763 7.982220 18.902366 53.831460 -1.191177 7.396923 18.047701 2.933700 -10.586900 -30.899100 15.995220 12.567691 -11.809136 0.979180 -11.187434 27.311357 -3.958377 5.236763 4.695771 -0.618100 5.031500 -13.998300 0.222223 2.561623 -3.930738 0.536295 0.940999 -11.979255 9.955516 -25.643953 4.861777 22.520900 -12.992400 4.231000 -77.890785 17.276409 14.526884 35.628723 -39.453175 -18.578596 -0.081303 -1.364297 -50.600164 -7.125000 0.000000 0.000000 68.150105 -17.715754 24.608299 -14.399164 27.158848 -5.689025 0.449263 2.383030 11.166621 7.125000 0.000000 0.000000 
